<svg xmlns="http://www.w3.org/2000/svg" width="1400" height="920" viewBox="0 0 1400 920" role="img" aria-labelledby="title-16 desc-16">
  <title id="title-16">Sod Repair In Lake Worth Beach placeholder</title>
  <desc id="desc-16">Unique illustrated placeholder for sod repair in lake worth beach.</desc>
  <defs><linearGradient id="sky" x1="0" y1="0" x2="1" y2="1"><stop stop-color="#dce9db"/><stop offset="1" stop-color="#9cbea2"/></linearGradient></defs>
  <rect width="1400" height="920" fill="url(#sky)"/><circle cx="1020" cy="157" r="74" fill="#f2db9a"/><path d="M0 455 C180 366 355 470 530 382 S850 470 1040 350 S1240 390 1400 306 V920H0Z" fill="#6f9d70"/><path d="M0 530 C230 420 415 555 630 444 S1050 540 1400 394 V920H0Z" fill="#286247"/><path d="M0 595H1400V920H0Z" fill="#174632"/><g stroke="#dce8d6" stroke-width="5" opacity=".7"><path d="M150 625v260M380 605v290M610 590v310M840 570v330M1070 555v350M1300 535v370"/><path d="M0 710h1400M0 820h1400"/></g><path d="M90 650L320 605 510 635 300 690z" fill="#68a663"/>
  <rect x="42" y="42" width="480" height="85" rx="4" fill="#103a2a" opacity=".88"/>
  <text x="68" y="78" fill="#fff" font-family="Arial, sans-serif" font-size="18" font-weight="700" letter-spacing="3">EVERGREEN EDGE / SOD</text>
  <text x="68" y="105" fill="#dcebd6" font-family="Arial, sans-serif" font-size="13">SECTION IMAGE PLACEHOLDER 16</text>
</svg>