<svg xmlns="http://www.w3.org/2000/svg" width="1400" height="920" viewBox="0 0 1400 920" role="img" aria-labelledby="title-17 desc-17">
  <title id="title-17">Commercial Maintenance Project In Boynton Beach placeholder</title>
  <desc id="desc-17">Unique illustrated placeholder for commercial maintenance project in boynton beach.</desc>
  <defs><linearGradient id="sky" x1="0" y1="0" x2="1" y2="1"><stop stop-color="#dce9db"/><stop offset="1" stop-color="#9cbea2"/></linearGradient></defs>
  <rect width="1400" height="920" fill="url(#sky)"/><circle cx="1090" cy="179" r="74" fill="#f2db9a"/><path d="M0 455 C180 375 355 470 530 382 S850 470 1040 350 S1240 390 1400 306 V920H0Z" fill="#6f9d70"/><path d="M0 530 C230 420 415 555 630 444 S1050 540 1400 394 V920H0Z" fill="#286247"/><path d="M0 620H1400V920H0Z" fill="#174732"/><rect x="780" y="260" width="420" height="370" rx="8" fill="#e7e0cf"/><g fill="#6f9e9d"><rect x="825" y="310" width="78" height="74"/><rect x="940" y="310" width="78" height="74"/><rect x="1055" y="310" width="78" height="74"/><rect x="825" y="425" width="78" height="74"/><rect x="940" y="425" width="78" height="74"/><rect x="1055" y="425" width="78" height="74"/></g><path d="M0 745C300 670 480 760 750 700" fill="none" stroke="#d2a85d" stroke-width="14"/>
  <rect x="42" y="42" width="480" height="85" rx="4" fill="#103a2a" opacity=".88"/>
  <text x="68" y="78" fill="#fff" font-family="Arial, sans-serif" font-size="18" font-weight="700" letter-spacing="3">EVERGREEN EDGE / COMMERCIAL</text>
  <text x="68" y="105" fill="#dcebd6" font-family="Arial, sans-serif" font-size="13">SECTION IMAGE PLACEHOLDER 17</text>
</svg>