<svg xmlns="http://www.w3.org/2000/svg" width="1400" height="920" viewBox="0 0 1400 920" role="img" aria-labelledby="title-26 desc-26">
  <title id="title-26">Entry Hedge Detail In West Palm Beach placeholder</title>
  <desc id="desc-26">Unique illustrated placeholder for entry hedge detail in west palm beach.</desc>
  <defs><linearGradient id="sky" x1="0" y1="0" x2="1" y2="1"><stop stop-color="#dce9db"/><stop offset="1" stop-color="#9cbea2"/></linearGradient></defs>
  <rect width="1400" height="920" fill="url(#sky)"/><circle cx="1160" cy="179" r="74" fill="#f2db9a"/><path d="M0 455 C180 348 355 470 530 382 S850 470 1040 350 S1240 390 1400 306 V920H0Z" fill="#6f9d70"/><path d="M0 530 C230 420 415 555 630 444 S1050 540 1400 394 V920H0Z" fill="#286247"/><path d="M0 700H1400V920H0Z" fill="#123c2a"/><g fill="#1b5337"><circle cx="190" cy="592" r="128"/><circle cx="405" cy="570" r="165"/><circle cx="700" cy="600" r="145"/><circle cx="980" cy="552" r="170"/><circle cx="1230" cy="590" r="138"/></g><path d="M80 730C330 675 520 760 750 690S1100 740 1350 670" fill="none" stroke="#d0aa60" stroke-width="13"/>
  <rect x="42" y="42" width="480" height="85" rx="4" fill="#103a2a" opacity=".88"/>
  <text x="68" y="78" fill="#fff" font-family="Arial, sans-serif" font-size="18" font-weight="700" letter-spacing="3">EVERGREEN EDGE / HEDGE</text>
  <text x="68" y="105" fill="#dcebd6" font-family="Arial, sans-serif" font-size="13">SECTION IMAGE PLACEHOLDER 26</text>
</svg>