<svg xmlns="http://www.w3.org/2000/svg" width="1400" height="920" viewBox="0 0 1400 920" role="img" aria-labelledby="title-31 desc-31">
  <title id="title-31">Storm Debris Clear In Greenacres placeholder</title>
  <desc id="desc-31">Unique illustrated placeholder for storm debris clear in greenacres.</desc>
  <defs><linearGradient id="sky" x1="0" y1="0" x2="1" y2="1"><stop stop-color="#dce9db"/><stop offset="1" stop-color="#9cbea2"/></linearGradient></defs>
  <rect width="1400" height="920" fill="url(#sky)"/><circle cx="1230" cy="157" r="74" fill="#f2db9a"/><path d="M0 455 C180 339 355 470 530 382 S850 470 1040 350 S1240 390 1400 306 V920H0Z" fill="#6f9d70"/><path d="M0 530 C230 420 415 555 630 444 S1050 540 1400 394 V920H0Z" fill="#286247"/><path d="M0 555H1400V920H0Z" fill="#193f31"/><path d="M860 160L710 465h125l-55 210 230-330H885z" fill="#d4a557"/><path d="M100 720l260-82 174 80 210-95 220 105 270-87 166 75v204H100z" fill="#345d43"/><g stroke="#d0a85d" stroke-width="10"><path d="M156 692l76 69M430 676l55 70M1080 676l76 72"/></g>
  <rect x="42" y="42" width="480" height="85" rx="4" fill="#103a2a" opacity=".88"/>
  <text x="68" y="78" fill="#fff" font-family="Arial, sans-serif" font-size="18" font-weight="700" letter-spacing="3">EVERGREEN EDGE / STORM</text>
  <text x="68" y="105" fill="#dcebd6" font-family="Arial, sans-serif" font-size="13">SECTION IMAGE PLACEHOLDER 31</text>
</svg>