<svg xmlns="http://www.w3.org/2000/svg" width="1400" height="920" viewBox="0 0 1400 920" role="img" aria-labelledby="title-32 desc-32">
  <title id="title-32">Landscape Bed Rework In Palm Beach Gardens placeholder</title>
  <desc id="desc-32">Unique illustrated placeholder for landscape bed rework in palm beach gardens.</desc>
  <defs><linearGradient id="sky" x1="0" y1="0" x2="1" y2="1"><stop stop-color="#dce9db"/><stop offset="1" stop-color="#9cbea2"/></linearGradient></defs>
  <rect width="1400" height="920" fill="url(#sky)"/><circle cx="1020" cy="179" r="74" fill="#f2db9a"/><path d="M0 455 C180 348 355 470 530 382 S850 470 1040 350 S1240 390 1400 306 V920H0Z" fill="#6f9d70"/><path d="M0 530 C230 420 415 555 630 444 S1050 540 1400 394 V920H0Z" fill="#286247"/><path d="M0 680H1400V920H0Z" fill="#1b5038"/><ellipse cx="720" cy="705" rx="420" ry="145" fill="#704c32"/><ellipse cx="720" cy="705" rx="335" ry="99" fill="#8b6039"/><g fill="#3d7a49"><circle cx="525" cy="650" r="55"/><circle cx="700" cy="625" r="68"/><circle cx="880" cy="648" r="58"/></g>
  <rect x="42" y="42" width="480" height="85" rx="4" fill="#103a2a" opacity=".88"/>
  <text x="68" y="78" fill="#fff" font-family="Arial, sans-serif" font-size="18" font-weight="700" letter-spacing="3">EVERGREEN EDGE / MULCH</text>
  <text x="68" y="105" fill="#dcebd6" font-family="Arial, sans-serif" font-size="13">SECTION IMAGE PLACEHOLDER 32</text>
</svg>