<svg xmlns="http://www.w3.org/2000/svg" width="1400" height="920" viewBox="0 0 1400 920" role="img" aria-labelledby="title-39 desc-39">
  <title id="title-39">Owner Inspecting A Landscaped Property placeholder</title>
  <desc id="desc-39">Unique illustrated placeholder for owner inspecting a landscaped property.</desc>
  <defs><linearGradient id="sky" x1="0" y1="0" x2="1" y2="1"><stop stop-color="#dce9db"/><stop offset="1" stop-color="#9cbea2"/></linearGradient></defs>
  <rect width="1400" height="920" fill="url(#sky)"/><circle cx="1230" cy="135" r="74" fill="#f2db9a"/><path d="M0 455 C180 357 355 470 530 382 S850 470 1040 350 S1240 390 1400 306 V920H0Z" fill="#6f9d70"/><path d="M0 530 C230 420 415 555 630 444 S1050 540 1400 394 V920H0Z" fill="#286247"/><path d="M0 645H1400V920H0Z" fill="#174632"/><circle cx="750" cy="470" r="105" fill="#d6a368"/><path d="M560 735c35-190 350-190 385 0z" fill="#e7e2d5"/><path d="M645 450c25-140 210-140 218 0-60-55-142-62-218 0z" fill="#1c352a"/><path d="M310 780C550 650 930 680 1260 580" fill="none" stroke="#d2a85d" stroke-width="14"/>
  <rect x="42" y="42" width="480" height="85" rx="4" fill="#103a2a" opacity=".88"/>
  <text x="68" y="78" fill="#fff" font-family="Arial, sans-serif" font-size="18" font-weight="700" letter-spacing="3">EVERGREEN EDGE / TEAM</text>
  <text x="68" y="105" fill="#dcebd6" font-family="Arial, sans-serif" font-size="13">SECTION IMAGE PLACEHOLDER 39</text>
</svg>